<svg width="20" height="14" viewBox="0 0 20 14" fill="none" xmlns="http://www.w3.org/2000/svg">
<g clip-path="url(#clip0_7_336)">
<path fill-rule="evenodd" clip-rule="evenodd" d="M16.9875 5.87815C16.9875 6.12393 16.8078 6.32775 16.572 6.36752C16.5649 6.37541 16.5587 6.38375 16.551 6.39124L10.1343 12.6514C9.93754 12.8431 9.62143 12.8403 9.42846 12.6443C9.23544 12.4484 9.23868 12.1338 9.43549 11.9417L15.1412 6.37506H-2.48032C-2.75593 6.37506 -2.97937 6.15237 -2.97937 5.87815C-2.97937 5.60373 -2.75593 5.38124 -2.48032 5.38124H15.007L9.43549 0.808415C9.23868 0.616352 9.23544 0.301675 9.42846 0.105839C9.62143 -0.0903439 9.93754 -0.0932231 10.1343 0.0987405L16.551 5.3653C16.5586 5.3727 16.5647 5.38094 16.5718 5.38874C16.8076 5.42835 16.9875 5.63213 16.9875 5.87815Z" fill="white"/>
</g>
<defs>
<clipPath id="clip0_7_336">
<rect width="20" height="12.8571" fill="white" transform="translate(0 0.571411)"/>
</clipPath>
</defs>
</svg>
